<?xml version="1.0" standalone="no"?>
<!DOCTYPE svg PUBLIC "-//W3C//DTD SVG 20010904//EN"
 "http://www.w3.org/TR/2001/REC-SVG-20010904/DTD/svg10.dtd">
<svg version="1.0" xmlns="http://www.w3.org/2000/svg"
 width="510.000000pt" height="170.000000pt" viewBox="0 0 510.000000 170.000000"
 preserveAspectRatio="xMidYMid meet">
<metadata>
Created by potrace 1.16, written by Peter Selinger 2001-2019
</metadata>
<g transform="translate(0.000000,170.000000) scale(0.100000,-0.100000)"
fill="#000000" stroke="none">
<path d="M1830 1589 c-109 -17 -100 -8 -100 -108 l0 -88 38 -7 c20 -3 56 -6
80 -6 l42 0 0 110 c0 61 -1 109 -2 109 -2 -1 -28 -5 -58 -10z"/>
<path d="M3750 1389 c-633 -59 -800 -69 -1130 -69 -293 0 -391 4 -774 35 -242
19 -458 35 -481 35 -37 0 -81 -26 -416 -242 -206 -134 -423 -274 -482 -312
-59 -38 -107 -69 -107 -70 0 -1 28 5 63 13 66 17 109 42 437 256 96 63 211
137 255 165 44 28 111 70 148 94 l68 44 212 -126 c285 -169 428 -253 452 -266
11 -6 75 -44 141 -84 l122 -72 361 0 362 0 177 113 c97 63 291 187 430 276
l252 162 43 -27 c23 -14 68 -42 99 -62 31 -21 117 -75 190 -122 73 -46 196
-125 273 -175 245 -159 258 -167 302 -163 42 3 35 8 -736 497 -182 115 -164
109 -261 100z m-1985 -56 c417 -35 1133 -44 1430 -18 504 44 585 50 585 44 0
-3 -19 -16 -42 -27 -37 -19 -95 -26 -413 -52 -322 -26 -416 -30 -720 -30 -215
0 -418 6 -525 15 -96 8 -269 21 -385 30 -169 13 -219 20 -257 37 -56 25 -62
39 -15 32 17 -2 172 -16 342 -31z m190 -83 c518 -42 813 -41 1313 1 200 16
369 28 374 27 6 -2 -5 -14 -25 -25 -31 -19 -76 -25 -349 -48 -289 -25 -342
-26 -728 -22 -309 3 -477 10 -660 25 -135 12 -252 22 -260 22 -8 0 -33 11 -55
25 l-40 24 30 1 c17 0 197 -14 400 -30z m50 -75 c433 -35 808 -35 1215 0 161
14 295 24 297 21 2 -2 -11 -13 -30 -24 -28 -18 -71 -25 -273 -42 -210 -19
-291 -21 -674 -17 -503 4 -781 24 -837 59 -57 34 -85 34 302 3z m108 -80 c329
-27 840 -19 1225 20 60 6 66 -2 20 -28 -56 -32 -296 -47 -743 -47 -444 0 -705
16 -768 46 -20 10 -37 21 -37 26 0 5 28 6 63 3 34 -3 142 -12 240 -20z m50
-75 c185 -14 773 -12 952 4 83 8 151 12 153 11 2 -2 -11 -13 -28 -25 -48 -34
-261 -51 -620 -49 -369 2 -593 18 -638 44 -43 26 -40 33 11 29 23 -2 100 -9
170 -14z m452 -79 c204 0 405 4 448 7 42 4 77 5 77 2 0 -4 -19 -17 -42 -31
l-43 -24 -440 0 c-438 0 -440 0 -482 23 -24 12 -43 26 -43 30 0 4 35 4 78 0
42 -3 244 -7 447 -7z m395 -76 c0 -2 -13 -11 -30 -20 -24 -13 -84 -15 -367
-15 -320 0 -340 1 -368 20 l-30 20 398 0 c218 0 397 -2 397 -5z"/>
<path d="M1240 989 c-75 -31 -93 -98 -40 -143 36 -30 82 -40 153 -34 97 8 152
56 132 114 -18 49 -57 69 -143 71 -42 2 -88 -2 -102 -8z m170 -38 c33 -23 37
-62 10 -86 -15 -13 -40 -20 -84 -23 -58 -4 -66 -2 -96 25 -32 29 -32 30 -17
60 27 52 129 65 187 24z"/>
<path d="M3725 984 c-16 -9 -36 -23 -42 -32 -15 -19 -17 -66 -3 -91 14 -28 83
-51 148 -51 150 0 218 114 102 172 -45 23 -163 24 -205 2z m185 -33 c14 -10
26 -28 28 -40 12 -81 -181 -103 -217 -24 -33 73 110 122 189 64z"/>
<path d="M1788 808 l-58 -10 0 -295 c0 -335 0 -337 78 -374 37 -18 57 -21 137
-17 52 2 97 7 101 10 3 4 -2 20 -12 37 -16 28 -23 31 -65 31 -81 0 -79 -10
-79 331 l0 299 -22 -1 c-13 -1 -49 -6 -80 -11z"/>
<path d="M559 701 c-112 -21 -209 -90 -209 -149 0 -80 80 -129 275 -167 188
-36 225 -54 225 -106 0 -64 -79 -94 -227 -87 -65 3 -120 13 -165 28 l-66 22
-36 -27 c-20 -15 -36 -31 -36 -35 0 -4 37 -20 83 -35 68 -23 104 -29 210 -33
79 -3 152 0 190 8 178 34 259 127 198 226 -24 40 -101 77 -201 98 -41 9 -110
23 -152 31 -90 19 -131 45 -126 83 8 68 174 94 324 50 l82 -24 33 28 c40 33
36 38 -61 69 -73 23 -262 34 -341 20z"/>
<path d="M2550 695 c-30 -9 -74 -29 -98 -45 -23 -17 -44 -30 -46 -30 -2 0 -6
18 -10 40 l-6 40 -70 0 -70 0 0 -290 0 -290 80 0 80 0 0 204 0 204 37 32 c55
49 109 70 180 70 55 0 67 -3 95 -29 l33 -29 3 -226 3 -226 80 0 79 0 0 205 0
206 28 25 c15 14 50 36 77 49 84 41 196 29 225 -24 6 -12 10 -108 10 -240 l0
-221 83 0 83 0 -3 230 c-2 184 -6 237 -18 260 -35 67 -146 107 -265 97 -89 -8
-130 -22 -189 -61 l-50 -34 -23 25 c-57 63 -212 90 -328 58z"/>
<path d="M1250 410 l0 -290 80 0 80 0 0 290 0 290 -80 0 -80 0 0 -290z"/>
<path d="M3750 410 l0 -290 80 0 80 0 -2 288 -3 287 -77 3 -78 3 0 -291z"/>
<path d="M4223 563 l137 -138 -152 -152 -153 -153 86 0 87 0 107 120 c74 83
111 117 119 111 6 -6 54 -59 106 -120 l95 -110 95 0 95 -1 -153 153 -152 152
130 130 c71 71 130 133 130 138 0 4 -37 7 -82 5 l-82 -3 -89 -100 c-49 -55
-92 -101 -96 -102 -3 -1 -46 45 -95 103 l-89 104 -91 0 -91 0 138 -137z"/>
</g>
</svg>
